<?xml version="1.0" encoding="utf-8"?>
<!-- Generator: Adobe Illustrator 24.1.0, SVG Export Plug-In . SVG Version: 6.00 Build 0)  -->
<svg version="1.1" id="Layer_1" xmlns="http://www.w3.org/2000/svg" xmlns:xlink="http://www.w3.org/1999/xlink" x="0px" y="0px"
	 viewBox="0 0 300 88" style="enable-background:new 0 0 300 88;" xml:space="preserve">
<style type="text/css">
	.st0{fill:#FFFFFF;}
	.st1{fill:#1CCDF7;}
	.st2{opacity:0.6;fill:url(#SVGID_1_);}
</style>
<g>
	<g>
		<path class="st0" d="M6.9,73.4c3.2,0,4.9,1.8,4.9,1.8L10.6,77c0,0-1.5-1.4-3.6-1.4c-2.8,0-4.5,2.1-4.5,4.6c0,2.5,1.7,4.8,4.5,4.8
			c2.3,0,3.9-1.7,3.9-1.7l1.3,1.7c0,0-1.8,2.2-5.2,2.2c-4.1,0-6.9-3-6.9-6.9C0,76.3,2.9,73.4,6.9,73.4z"/>
		<path class="st0" d="M20.7,73.4c3.9,0,6.9,3,6.9,6.8c0,3.9-3,7-6.9,7c-3.9,0-6.9-3.1-6.9-7C13.8,76.3,16.8,73.4,20.7,73.4z
			 M20.7,84.9c2.4,0,4.4-2,4.4-4.8c0-2.6-2-4.6-4.4-4.6c-2.4,0-4.4,2-4.4,4.6C16.3,82.9,18.3,84.9,20.7,84.9z"/>
		<path class="st0" d="M28.8,73.6h2.6l2.9,8.7c0.3,0.8,0.5,2,0.5,2h0c0,0,0.2-1.2,0.5-2l2.9-8.7h2.6L36,86.9h-2.4L28.8,73.6z"/>
		<path class="st0" d="M43,73.6h2.4v13.3H43V73.6z"/>
		<path class="st0" d="M49.3,73.6h4.5c4.1,0,6.8,2.4,6.8,6.6c0,4.2-2.7,6.7-6.8,6.7h-4.5V73.6z M53.7,84.8c2.7,0,4.4-1.6,4.4-4.6
			c0-3-1.8-4.6-4.4-4.6h-2v9.2H53.7z"/>
		<path class="st0" d="M74.6,73.4c3.2,0,4.9,1.8,4.9,1.8L78.4,77c0,0-1.5-1.4-3.6-1.4c-2.8,0-4.5,2.1-4.5,4.6c0,2.5,1.7,4.8,4.5,4.8
			c2.3,0,3.9-1.7,3.9-1.7l1.3,1.7c0,0-1.8,2.2-5.2,2.2c-4.1,0-6.9-3-6.9-6.9C67.8,76.3,70.7,73.4,74.6,73.4z"/>
		<path class="st0" d="M82.6,73.6h4.3c1.4,0,2.1,0.1,2.7,0.4c1.3,0.6,2.2,1.9,2.2,3.6c0,1.6-0.8,3.1-2.3,3.6v0c0,0,0.2,0.2,0.5,0.7
			l2.7,5H90l-2.6-5H85v5h-2.4V73.6z M87.2,79.8c1.3,0,2.1-0.8,2.1-2.1c0-1.3-0.5-2.1-2.4-2.1H85v4.2H87.2z"/>
		<path class="st0" d="M95.4,73.6h8v2.1h-5.6v3.5h4.5v2.1h-4.5v3.6h5.9v2.1h-8.3V73.6z"/>
		<path class="st0" d="M106.7,73.6h4.5c4.1,0,6.8,2.4,6.8,6.6c0,4.2-2.7,6.7-6.8,6.7h-4.5V73.6z M111.1,84.8c2.7,0,4.4-1.6,4.4-4.6
			c0-3-1.8-4.6-4.4-4.6h-2v9.2H111.1z"/>
		<path class="st0" d="M121.1,73.6h8v2.1h-5.6v3.5h4.5v2.1h-4.5v3.6h5.9v2.1h-8.3V73.6z"/>
		<path class="st0" d="M132.3,73.6h2.4l5.1,7.7c0.5,0.8,1.1,2.1,1.1,2.1h0c0,0-0.1-1.3-0.1-2.1v-7.7h2.4v13.3h-2.4l-5.1-7.7
			c-0.5-0.8-1.1-2.1-1.1-2.1h0c0,0,0.1,1.3,0.1,2.1v7.7h-2.4V73.6z"/>
		<path class="st0" d="M149.8,75.7h-4.4v-2.1h11.2v2.1h-4.4v11.3h-2.4V75.7z"/>
		<path class="st0" d="M158.9,73.6h2.4v13.3h-2.4V73.6z"/>
		<path class="st0" d="M171.8,83.5h-4.7l-1.1,3.4h-2.5l4.7-13.3h2.5l4.7,13.3h-2.5L171.8,83.5z M169.4,75.9c0,0-0.3,1.3-0.6,2.1
			l-1.2,3.6h3.5L170,78C169.7,77.2,169.5,75.9,169.4,75.9L169.4,75.9z"/>
		<path class="st0" d="M177.6,73.6h2.4v11.3h5.8v2.1h-8.2V73.6z"/>
		<path class="st0" d="M188.5,83.5c0,0,1.4,1.4,3.3,1.4c1,0,1.9-0.5,1.9-1.6c0-2.4-6.3-2-6.3-6.1c0-2.2,1.9-3.9,4.5-3.9
			c2.6,0,4,1.4,4,1.4l-1.1,2c0,0-1.3-1.2-2.9-1.2c-1.1,0-2,0.7-2,1.6c0,2.4,6.3,1.8,6.3,6c0,2.1-1.6,3.9-4.4,3.9
			c-3,0-4.6-1.8-4.6-1.8L188.5,83.5z"/>
		<path class="st0" d="M204.1,73.6h2.4v13.3h-2.4V73.6z"/>
		<path class="st0" d="M210.3,73.6h2.4l5.1,7.7c0.5,0.8,1.1,2.1,1.1,2.1h0c0,0-0.1-1.3-0.1-2.1v-7.7h2.4v13.3h-2.4l-5.1-7.7
			c-0.5-0.8-1.1-2.1-1.1-2.1h0c0,0,0.1,1.3,0.1,2.1v7.7h-2.4V73.6z"/>
		<path class="st0" d="M225.1,73.6h2.4v13.3h-2.4V73.6z"/>
		<path class="st0" d="M234.1,75.7h-4.4v-2.1h11.2v2.1h-4.4v11.3h-2.4V75.7z"/>
		<path class="st0" d="M243.1,73.6h2.4v13.3h-2.4V73.6z"/>
		<path class="st0" d="M256.1,83.5h-4.7l-1.1,3.4h-2.5l4.7-13.3h2.5l4.7,13.3h-2.5L256.1,83.5z M253.7,75.9c0,0-0.3,1.3-0.6,2.1
			l-1.2,3.6h3.5l-1.2-3.6C254,77.2,253.7,75.9,253.7,75.9L253.7,75.9z"/>
		<path class="st0" d="M263.8,75.7h-4.4v-2.1h11.2v2.1h-4.4v11.3h-2.4V75.7z"/>
		<path class="st0" d="M272.9,73.6h2.4v13.3h-2.4V73.6z"/>
		<path class="st0" d="M277.4,73.6h2.6l2.9,8.7c0.3,0.8,0.5,2,0.5,2h0c0,0,0.2-1.2,0.5-2l2.9-8.7h2.6l-4.9,13.3h-2.4L277.4,73.6z"/>
		<path class="st0" d="M291.7,73.6h8v2.1h-5.6v3.5h4.5v2.1h-4.5v3.6h5.9v2.1h-8.3V73.6z"/>
	</g>
	<g>
		<g>
			<path class="st1" d="M150,51.5c-14,0-25.3-11.4-25.3-25.3S136.1,0.9,150,0.9h13.1v12.2h12.2v13.1C175.4,40.2,164,51.5,150,51.5z
				 M150,6c-11.1,0-20.2,9.1-20.2,20.2s9.1,20.2,20.2,20.2c11.1,0,20.2-9.1,20.2-20.2v-8h-7.1v8c0,7.2-5.9,13.1-13.1,13.1
				c-7.2,0-13.1-5.9-13.1-13.1s5.9-13.1,13.1-13.1h8V6H150z M150,18.2c-4.4,0-8,3.6-8,8s3.6,8,8,8s8-3.6,8-8v-8H150z"/>
		</g>
		
			<linearGradient id="SVGID_1_" gradientUnits="userSpaceOnUse" x1="-351.3896" y1="-311.8149" x2="-351.3896" y2="-316.0745" gradientTransform="matrix(-1 0 0 -1 -190.8389 -293.5867)">
			<stop  offset="0" style="stop-color:#000054"/>
			<stop  offset="1" style="stop-color:#000054;stop-opacity:0"/>
		</linearGradient>
		<polygon class="st2" points="163.1,22.5 158,22.5 158,18.2 163.1,18.2 		"/>
	</g>
</g>
</svg>
